<svg width="17" height="17" viewBox="0 0 17 17" fill="none" xmlns="http://www.w3.org/2000/svg">
<path d="M15.2761 7.24252H2.4862L5.92041 2.15758C6.05289 1.95448 6.1262 1.68246 6.12454 1.40011C6.12288 1.11777 6.0464 0.847675 5.91155 0.648016C5.77671 0.448357 5.5943 0.335105 5.40361 0.332652C5.21292 0.330198 5.0292 0.43874 4.89204 0.634899L0.216356 7.55804C0.0800118 7.75998 0.00341797 8.03383 0.00341797 8.31938C0.00341797 8.60492 0.0800118 8.87878 0.216356 9.08072L4.89204 16.0039C4.95913 16.1067 5.03938 16.1887 5.12811 16.2452C5.21684 16.3016 5.31227 16.3313 5.40884 16.3326C5.50541 16.3338 5.60118 16.3066 5.69056 16.2524C5.77994 16.1983 5.86114 16.1183 5.92943 16.0172C5.99771 15.9161 6.05171 15.7959 6.08828 15.6635C6.12485 15.5312 6.14325 15.3894 6.14241 15.2464C6.14157 15.1034 6.12151 14.9621 6.0834 14.8307C6.04528 14.6993 5.98987 14.5805 5.92041 14.4812L2.4862 9.39624H15.2761C15.469 9.39624 15.654 9.28279 15.7904 9.08084C15.9268 8.87888 16.0034 8.60498 16.0034 8.31938C16.0034 8.03378 15.9268 7.75987 15.7904 7.55792C15.654 7.35597 15.469 7.24252 15.2761 7.24252Z" fill="url(#paint0_linear_1_4)"/>
<defs>
<linearGradient id="paint0_linear_1_4" x1="-0.911655" y1="21.8975" x2="19.5448" y2="7.68709" gradientUnits="userSpaceOnUse">
<stop stop-color="#888888"/>
<stop offset="0.04" stop-color="#888888"/>
<stop offset="0.117" stop-color="#888888"/>
<stop offset="0.200772" stop-color="#888888"/>
<stop offset="0.281" stop-color="#888888"/>
<stop offset="0.669" stop-color="#888888"/>
<stop offset="0.888" stop-color="#888888"/>
<stop offset="1" stop-color="#888888"/>
</linearGradient>
</defs>
</svg>
